# xmcd
#
# Track frame offsets: 
#        150
#        12445
#        29907
#        43370
#        56687
#        71730
#        89212
#        109375
#        120307
#        132665
#        150707
#        161842
#
# Disc length: 2469 seconds
#
# Revision: 3
# Processed by: cddbd v1.4PL0 Copyright (c) Steve Scherf et al.
# Submitted via: ExactAudioCopy v0.90b4
#
DISCID=bb09a30c
DTITLE=Peter Rowan - Bluegrass Boy
DYEAR=1996
DGENRE=Bluegrass
TTITLE0=Nighttime
TTITLE1=Wild Geese Cry Again
TTITLE2=A Jealous Heart and a Worried Mind
TTITLE3=Will Work for Food
TTITLE4=Stable Boy Blues
TTITLE5=The Green Willow
TTITLE6=Let the Harvest go to Seed
TTITLE7=Ruby Ridge
TTITLE8=Pretty Little Blanco River Waltz
TTITLE9=Weep Not for the Dead
TTITLE10=Pure White Sail
TTITLE11=Bluegrass Boy
EXTD=
EXTT0=
EXTT1=
EXTT2=
EXTT3=
EXTT4=
EXTT5=
EXTT6=
EXTT7=
EXTT8=
EXTT9=
EXTT10=
EXTT11=
PLAYORDER=
